:version 1.10
:name ASF
:units
  mass 1
  length 1
  angle deg
:documentation
  ASF file generated by Kaydara
:root
  axis xyz
  order  tx ty tz rx ry rz
  position 0 0 0
  orientation 0 0 0
:bonedata
  begin
    id 1
    name RightUpLegDummy
    direction -0.718183 -0.695806 0.00816078
    length 4.904
    axis 0 0 0 xyz
  end
  begin
    id 2
    name RightUpLeg
    direction -0.0736652 -0.994202 0.0783343
    length 17.4976
    axis -2.72909 -3.00389 -4.00133 xyz
    dof rx ry rz
  end
  begin
    id 3
    name RightLeg
    direction -0.0389037 -0.994596 -0.0962598
    length 16.5821
    axis 3.95836 -18.5909 -4.46993 xyz
    dof rx ry rz
  end
  begin
    id 4
    name RightFoot
    direction -0.311643 -0.412678 0.855906
    length 3.77069
    axis -1.99483 -18.8351 -3.27644 xyz
    dof rx ry rz
  end
  begin
    id 5
    name RightToes
    direction -0.317852 0.0389852 0.947339
    length 3.85082
    axis -2.00228 -18.1713 -3.25211 xyz
    dof rx ry rz
  end
  begin
    id 6
    name SpineDummy
    direction 8.3039e-015 1 4.44677e-016
    length 4.6813
    axis 0 0 0 xyz
  end
  begin
    id 7
    name Spine
    direction -0.000262373 0.999988 0.00493267
    length 10.1015
    axis -0.00246081 0.00062579 0.0150362 xyz
    dof rx ry rz
  end
  begin
    id 8
    name Spine1
    direction 0 0 0
    length 0
    axis -0.00349562 0.000650293 0.0196666 xyz
    dof rx ry rz
  end
  begin
    id 9
    name HEadDummy
    direction -0.000343232 0.999999 0.00123745
    length 3.43865
    axis -0.00349562 0.000650293 0.0196666 xyz
  end
  begin
    id 10
    name HEad
    direction -0.0461221 0.980933 0.188796
    length 5.12695
    axis -0.00351404 -7.04812 0.0199272 xyz
    dof rx ry rz
  end
  begin
    id 11
    name LeftShoulder1Dummy
    direction 0.998904 -0.0399089 -0.0244534
    length 3.5433
    axis -0.00349562 0.000650293 0.0196666 xyz
  end
  begin
    id 12
    name LeftShoulder1
    direction 0.99951 1.64443e-005 0.0312999
    length 4.05031
    axis -0.00349562 0.000650293 0.0196666 xyz
    dof rx ry rz
  end
  begin
    id 13
    name LeftArm
    direction 0.984791 0.0515299 0.165927
    length 12.9126
    axis -64.823 -10.7743 5.20463 xyz
    dof rx ry rz
  end
  begin
    id 14
    name LeftForeArm
    direction 0.984968 0.0534808 0.16425
    length 10.8596
    axis -30.0462 -7.70601 1.87451 xyz
    dof rx ry rz
  end
  begin
    id 15
    name LeftHand
    direction 0.975871 0.0289682 0.216418
    length 6.62295
    axis -20.1348 -6.98077 1.86072 xyz
    dof rx ry rz
  end
  begin
    id 16
    name RightShoulderDummy
    direction -0.998877 -0.0405946 -0.0244307
    length 3.5433
    axis -0.00349562 0.000650293 0.0196666 xyz
  end
  begin
    id 17
    name RightShoulder
    direction -0.998933 -0.0249743 -0.0388558
    length 4.05031
    axis -0.0205316 -4.02113 1.41395 xyz
    dof rx ry rz
  end
  begin
    id 18
    name RightArm
    direction -0.997559 0.068664 0.0127103
    length 12.9638
    axis -67.3882 1.84188 -6.15987 xyz
    dof rx ry rz
  end
  begin
    id 19
    name RightForeArm
    direction -0.991508 0.0912848 0.0926241
    length 10.8312
    axis -22.1975 3.41087 -4.28711 xyz
    dof rx ry rz
  end
  begin
    id 20
    name RightHand
    direction -0.989262 0.0600788 0.133232
    length 6.57864
    axis -12.2911 2.17515 -4.39675 xyz
    dof rx ry rz
  end
  begin
    id 21
    name LeftUpLegDummy
    direction 0.718183 -0.695806 0.00816078
    length 4.904
    axis 0 0 0 xyz
  end
  begin
    id 22
    name LeftUpLeg
    direction 0.0831398 -0.99469 0.0606531
    length 17.4976
    axis -1.71016 2.29552 4.63832 xyz
    dof rx ry rz
  end
  begin
    id 23
    name LeftLeg
    direction 0.0498442 -0.991778 -0.117862
    length 16.5821
    axis 5.13757 15.5727 5.13348 xyz
    dof rx ry rz
  end
  begin
    id 24
    name LeftFoot
    direction 0.269026 -0.433896 0.85986
    length 3.77069
    axis -0.576502 15.6961 4.10267 xyz
    dof rx ry rz
  end
  begin
    id 25
    name LeftToes
    direction 0.277311 0.0251143 0.960452
    length 3.85048
    axis -0.576502 15.6961 4.10267 xyz
    dof rx ry rz
  end
:hierarchy
  begin
    root RightUpLegDummy SpineDummy LeftUpLegDummy
    RightUpLegDummy RightUpLeg
    RightUpLeg RightLeg
    RightLeg RightFoot
    RightFoot RightToes
    SpineDummy Spine
    Spine Spine1
    Spine1 HEadDummy LeftShoulder1Dummy RightShoulderDummy
    HEadDummy HEad
    LeftShoulder1Dummy LeftShoulder1
    LeftShoulder1 LeftArm
    LeftArm LeftForeArm
    LeftForeArm LeftHand
    RightShoulderDummy RightShoulder
    RightShoulder RightArm
    RightArm RightForeArm
    RightForeArm RightHand
    LeftUpLegDummy LeftUpLeg
    LeftUpLeg LeftLeg
    LeftLeg LeftFoot
    LeftFoot LeftToes
  end

:SAMPLES-PER-SECOND 30
:FULLY-SPECIFIED
:DEGREES
31
root  -4.97718 31.0244 84.1694 -171.611 11.6539 -176.054
RightUpLeg  -52.8559 -11.696 7.84925
RightLeg  75.5929 15.0498 -4.85398
RightFoot  -30.5871 0.255823 1.00108
RightToes  -1.16415e-010 -3.18055e-015 -2.98177e-016
Spine  22.3067 0.4825 8.80938
Spine1  0.25296 1.38763 -0.155526
HEad  -25.3177 2.28347 4.16698
LeftShoulder1  -3.88251e-019 9.70628e-020 -3.87848e-018
LeftArm  -26.2546 30.5988 -61.1566
LeftForeArm  4.31752 -49.5652 13.8673
LeftHand  -2.83984 -8.71582 23.9724
RightShoulder  6.04881 9.90823 29.0956
RightArm  6.28035 -31.7713 18.3334
RightForeArm  0.934035 33.0209 -18.0278
RightHand  -3.71488 5.17697 -38.9746
LeftUpLeg  -50.6079 12.1339 1.63308
LeftLeg  77.0008 -11.7437 11.2156
LeftFoot  -34.1381 -1.08885 -5.35759
LeftToes  1.69338e-011 3.79281e-011 -2.20049e-011
32
root  -5.04192 30.228 84.2262 -171.349 12.0067 -175.648
RightUpLeg  -55.1473 -10.4505 8.04475
RightLeg  78.8604 15.1477 -5.87739
RightFoot  -31.9354 0.394405 1.73964
RightToes  -1.16415e-010 -3.18055e-015 -2.98177e-016
Spine  23.0612 0.495602 8.98344
Spine1  0.427497 1.3954 0.181843
HEad  -25.1794 2.66285 4.10752
LeftShoulder1  -3.88251e-019 9.70628e-020 -3.87848e-018
LeftArm  -26.9519 28.8315 -60.8898
LeftForeArm  5.41034 -50.3443 14.349
LeftHand  -2.76543 -8.67341 23.4397
RightShoulder  5.9441 9.86572 28.6096
RightArm  5.51098 -31.2043 19.2269
RightForeArm  0.301383 33.9255 -18.57
RightHand  -3.58566 4.9203 -38.582
LeftUpLeg  -52.8446 11.9699 2.02264
LeftLeg  80.5848 -12.336 12.0034
LeftFoot  -35.6465 -1.29114 -5.98267
LeftToes  1.69338e-011 3.79281e-011 -2.20049e-011
33
root  -5.11591 29.4813 84.2728 -171.177 12.0579 -175.189
RightUpLeg  -57.1055 -9.82964 8.28861
RightLeg  81.9075 15.378 -6.41781
RightFoot  -33.256 0.532354 2.37746
RightToes  -1.16415e-010 -3.18055e-015 -2.98177e-016
Spine  24.2174 0.472693 9.25755
Spine1  -0.158191 1.38003 0.648736
HEad  -24.6347 2.57634 3.83746
LeftShoulder1  -3.88251e-019 9.70628e-020 -3.87848e-018
LeftArm  -27.2264 27.3582 -60.5977
LeftForeArm  5.47668 -50.7263 14.5628
LeftHand  -2.7368 -8.38365 23.6893
RightShoulder  5.90052 9.80988 28.4838
RightArm  5.21345 -30.7344 19.3669
RightForeArm  -0.152154 34.7257 -19.0672
RightHand  -3.59438 5.01965 -38.3289
LeftUpLeg  -54.8731 11.66 2.49195
LeftLeg  83.9324 -12.9796 12.5106
LeftFoot  -36.9995 -1.50445 -6.62285
LeftToes  1.69338e-011 3.79281e-011 -2.20049e-011
34
root  -5.18331 28.7735 84.3108 -171.096 11.9482 -174.81
RightUpLeg  -58.8713 -9.67539 8.50533
RightLeg  84.8209 15.6584 -6.64743
RightFoot  -34.4856 0.63335 2.75071
RightToes  -1.16415e-010 -3.18055e-015 -2.98177e-016
Spine  25.2793 0.431655 9.47609
Spine1  -0.655319 1.34748 1.10294
HEad  -24.1366 2.15326 3.61509
LeftShoulder1  -3.88251e-019 9.70628e-020 -3.87848e-018
LeftArm  -27.4724 25.7704 -60.3195
LeftForeArm  4.99857 -50.5503 14.436
LeftHand  -2.82671 -8.27074 24.6338
RightShoulder  5.91941 9.80007 28.6078
RightArm  4.93898 -30.1275 19.3256
RightForeArm  -0.229431 35.2754 -19.4272
RightHand  -3.62863 5.07395 -38.4832
LeftUpLeg  -56.7079 11.3546 2.88822
LeftLeg  87.0362 -13.6218 12.8151
LeftFoot  -38.2502 -1.69598 -7.12413
LeftToes  1.69338e-011 3.79281e-011 -2.20049e-011
35
root  -5.23245 28.1126 84.3451 -171.095 11.9403 -174.587
RightUpLeg  -60.5158 -9.56705 8.62507
RightLeg  87.5438 15.9397 -6.85719
RightFoot  -35.5265 0.704042 2.95726
RightToes  -1.16415e-010 -3.18055e-015 -2.98177e-016
Spine  26.0788 0.439646 9.46703
Spine1  -0.746892 1.35862 1.40291
HEad  -23.949 1.67132 3.58167
LeftShoulder1  -3.88251e-019 9.70628e-020 -3.87848e-018
LeftArm  -27.4856 24.3075 -59.8715
LeftForeArm  4.12671 -50.2948 14.2438
LeftHand  -2.90549 -8.31067 25.2212
RightShoulder  5.94 9.83975 28.64
RightArm  4.47617 -29.5423 19.6115
RightForeArm  -0.437029 35.5873 -19.6258
RightHand  -3.62151 5.01862 -38.6001
LeftUpLeg  -58.3092 11.3418 3.09865
LeftLeg  89.8504 -14.222 12.9601
LeftFoot  -39.4091 -1.85379 -7.45889
LeftToes  1.69338e-011 3.79281e-011 -2.20049e-011
36
root  -5.2635 27.4962 84.376 -171.073 11.9787 -174.488
RightUpLeg  -62.1473 -9.35302 8.6525
RightLeg  90.0769 16.2263 -7.17109
RightFoot  -36.3542 0.778669 3.19756
RightToes  -1.16415e-010 -3.18055e-015 -2.98177e-016
Spine  26.9428 0.514478 9.24806
Spine1  -1.0788 1.43002 1.59592
HEad  -23.8779 1.12439 3.57855
LeftShoulder1  -3.88251e-019 9.70628e-020 -3.87848e-018
LeftArm  -26.8028 23.487 -59.1673
LeftForeArm  2.76586 -50.5148 14.2786
LeftHand  -2.85508 -8.21889 24.9647
RightShoulder  5.92188 9.86698 28.485
RightArm  4.127 -29.3286 19.9372
RightForeArm  -0.996819 35.9284 -19.8287
RightHand  -3.65294 5.18943 -38.3348
LeftUpLeg  -59.8289 11.5631 3.1501
LeftLeg  92.456 -14.7699 12.912
LeftFoot  -40.4386 -1.98113 -7.67768
LeftToes  1.69338e-011 3.79281e-011 -2.20049e-011
